<svg width="133" height="30" viewBox="0 0 133 30" fill="none" xmlns="http://www.w3.org/2000/svg">
<path d="M73.0422 6.84556C74.2599 7.55343 75.1958 8.56211 75.8514 9.8722C76.5062 11.1823 76.8337 12.7211 76.8337 14.4886V26.4744C76.8337 26.8637 76.7318 27.1588 76.528 27.3598C76.3237 27.5604 76.0305 27.6609 75.647 27.6609H73.2741C72.8848 27.6609 72.5894 27.5604 72.389 27.3598C72.1881 27.1588 72.0873 26.8637 72.0873 26.4744V15.2303C72.0873 13.5987 71.7198 12.3645 70.9842 11.5269C70.2491 10.6894 69.1271 10.271 67.6192 10.271C66.6494 10.271 65.8228 10.4733 65.1398 10.8781C64.4568 11.2828 63.9359 11.8744 63.5776 12.6533C63.2192 13.4318 63.04 14.3712 63.04 15.4713V26.4744C63.04 26.8637 62.9381 27.1588 62.7343 27.3598C62.5305 27.5604 62.2368 27.6609 61.8538 27.6609H59.4804C59.0911 27.6609 58.7963 27.5604 58.5953 27.3598C58.3944 27.1588 58.2942 26.8637 58.2942 26.4744V15.2303C58.2942 13.5987 57.9261 12.3645 57.1911 11.5269C56.4555 10.6894 55.3339 10.271 53.8261 10.271C52.8558 10.271 52.0291 10.4733 51.3462 10.8781C50.6632 11.2828 50.1428 11.8744 49.7845 12.6533C49.4261 13.4318 49.2469 14.3712 49.2469 15.4713V26.4744C49.2469 26.8637 49.1449 27.1588 48.9406 27.3598C48.7368 27.5604 48.4432 27.6609 48.0602 27.6609H45.6873C45.298 27.6609 45.0025 27.5604 44.8022 27.3598C44.6013 27.1588 44.5005 26.8637 44.5005 26.4744V7.48986C44.5005 7.10688 44.6013 6.81321 44.8022 6.60915C45.0025 6.40532 45.298 6.3034 45.6873 6.3034H47.9583C48.3412 6.3034 48.6349 6.40532 48.8387 6.60915C49.0425 6.81321 49.1478 7.10688 49.1541 7.48986L49.2188 11.6706H47.6245C47.8037 10.6448 48.1821 9.68675 48.7603 8.79685C49.3379 7.90694 50.1491 7.18245 51.1933 6.62312C52.2375 6.06388 53.4986 5.78418 54.9756 5.78418C56.2362 5.78418 57.3777 5.99887 58.4007 6.42848C59.4231 6.85817 60.2898 7.47756 61.0009 8.28704C61.7113 9.09682 62.2368 10.0668 62.5769 11.1978L61.4548 10.9567C61.7148 10.0176 62.1458 9.16008 62.748 8.3844C63.3509 7.60894 64.1557 6.9815 65.1627 6.50268C66.1703 6.02378 67.3725 5.78418 68.7687 5.78418C70.4002 5.78418 71.8246 6.138 73.0422 6.84556Z" fill="#F1F2F2"/>
<path d="M84.2777 26.785C82.6742 25.855 81.4365 24.5295 80.5652 22.8083C79.6939 21.0872 79.2583 19.0741 79.2583 16.7691C79.2583 14.4949 79.7031 12.5296 80.5932 10.8734C81.4829 9.21727 82.7034 7.95494 84.2548 7.08653C85.8056 6.21835 87.5545 5.78418 89.5015 5.78418C91.4353 5.78418 93.1476 6.20923 94.6366 7.05873C96.1261 7.90861 97.282 9.11824 98.104 10.688C98.9255 12.2577 99.3365 14.093 99.3365 16.1942V17.1211C99.3365 17.5043 99.2346 17.7978 99.0309 18.0018C98.827 18.2057 98.5334 18.3078 98.1504 18.3078H80.4542V14.4514H95.6195L94.6829 15.4063C94.6829 14.3434 94.4837 13.39 94.0853 12.5465C93.6868 11.703 93.0983 11.0386 92.3192 10.5534C91.5406 10.0685 90.6012 9.8258 89.5015 9.8258C88.364 9.8258 87.3788 10.0931 86.5441 10.6275C85.71 11.1622 85.0689 11.9502 84.6206 12.9916C84.1729 14.0329 83.9486 15.292 83.9486 16.7691C83.9486 18.351 84.2039 19.6734 84.7134 20.7366C85.2234 21.7993 85.9201 22.589 86.804 23.1048C87.6873 23.621 88.7012 23.8789 89.8444 23.8789C90.5366 23.8789 91.1341 23.8001 91.638 23.6424C92.1418 23.4849 92.5573 23.2731 92.8848 23.0076C93.2123 22.7419 93.4842 22.4296 93.7006 22.0713C93.7933 21.9044 93.846 21.8056 93.858 21.7747C93.9633 21.5583 94.0761 21.3823 94.1963 21.2463C94.3172 21.1104 94.4608 21.0084 94.6274 20.9403C94.7945 20.8725 94.9892 20.8384 95.2113 20.8384H97.4548C97.7142 20.8384 97.9368 20.8848 98.1224 20.9775C98.3078 21.07 98.4435 21.2063 98.53 21.3851C98.6164 21.5646 98.6444 21.7779 98.6135 22.0249C98.4652 23.1558 98.0159 24.1894 97.2647 25.1257C96.5143 26.0619 95.5067 26.805 94.2427 27.3552C92.9793 27.905 91.5315 28.1801 89.8999 28.1801C87.7554 28.1801 85.8818 27.715 84.2777 26.785Z" fill="#F1F2F2"/>
<path d="M105.576 6.30351H111.486C111.869 6.30351 112.163 6.40543 112.367 6.60919C112.571 6.81332 112.673 7.10699 112.673 7.48997V9.71458C112.673 10.1042 112.571 10.3993 112.367 10.5999C112.163 10.8009 111.869 10.9013 111.486 10.9013H104.745L105.576 6.30351ZM102.551 27.2208C101.957 26.9271 101.514 26.4837 101.22 25.8906C100.927 25.2972 100.78 24.5527 100.78 23.6565L103.927 1.18646C103.927 0.80348 104.027 0.509807 104.228 0.305747C104.429 0.101916 104.724 0 105.113 0H107.468C107.851 0 108.144 0.101916 108.348 0.305747C108.552 0.509807 108.654 0.80348 108.654 1.18646L105.507 23.7029L105.091 23.2856H109.697C110.081 23.2856 110.374 23.3878 110.578 23.5916C110.782 23.7957 110.884 24.089 110.884 24.4723V26.4746C110.884 26.8638 110.782 27.159 110.578 27.3598C110.374 27.5605 110.081 27.661 109.697 27.661H104.785C103.889 27.661 103.144 27.5141 102.551 27.2208Z" fill="#F1F2F2"/>
<path d="M128.362 6.7946C129.644 7.46837 130.545 8.36116 131.064 9.4735C131.583 10.5861 131.843 11.8716 131.843 13.33V21.0794C131.843 21.8952 131.867 22.7851 131.917 23.7492C131.967 24.7132 132.038 25.5972 132.13 26.4003C132.161 26.6722 132.139 26.9009 132.065 27.0861C131.991 27.2716 131.867 27.4139 131.695 27.5126C131.521 27.6114 131.299 27.6609 131.027 27.6609H128.96C128.713 27.6609 128.501 27.6208 128.325 27.5404C128.149 27.46 128.008 27.3412 127.903 27.1835C127.798 27.026 127.733 26.8296 127.708 26.595C127.665 26.218 127.622 25.841 127.579 25.464C127.536 25.0501 127.468 24.358 127.375 23.3877L128.617 23.3227C128.505 23.9161 128.237 24.5696 127.81 25.2831C127.384 25.997 126.672 26.6396 125.674 27.2115C124.676 27.7828 123.358 28.0688 121.72 28.0688C120.206 28.0688 118.825 27.7923 117.576 27.2393C116.328 26.6859 115.339 25.8842 114.61 24.8338C113.881 23.7832 113.516 22.5379 113.516 21.098C113.516 19.788 113.819 18.7049 114.425 17.8487C115.031 16.9929 115.86 16.3534 116.914 15.9301C117.967 15.5067 119.202 15.258 120.617 15.1839L126.55 14.8779C126.71 14.8656 126.831 14.8424 126.911 14.8084C126.992 14.7746 127.048 14.7173 127.083 14.6369C127.117 14.5568 127.134 14.4362 127.134 14.2754H129.507C129.507 14.9612 129.418 15.5963 129.243 16.1803C129.066 16.7642 128.691 17.282 128.116 17.7331C127.541 18.1842 126.701 18.4466 125.595 18.5208L121.896 18.7618C121.043 18.8176 120.357 18.9367 119.838 19.1187C119.319 19.3011 118.939 19.5607 118.698 19.8976C118.457 20.2345 118.337 20.6656 118.337 21.1905C118.337 21.8211 118.514 22.3696 118.87 22.8361C119.225 23.3027 119.713 23.6611 120.334 23.9112C120.956 24.1617 121.658 24.2868 122.443 24.2868C123.315 24.2868 124.103 24.1261 124.807 23.8047C125.511 23.4836 126.075 22.9597 126.499 22.2336C126.922 21.5074 127.134 20.5728 127.134 19.4293V13.2372C127.134 12.1681 126.818 11.3692 126.188 10.8409C125.558 10.3124 124.547 10.0482 123.157 10.0482C122.286 10.0482 121.562 10.1487 120.988 10.3497C120.413 10.5506 119.985 10.8131 119.704 11.1376C119.423 11.462 119.261 11.8157 119.217 12.199C119.186 12.4833 119.143 12.7028 119.088 12.8571C119.032 13.0116 118.939 13.129 118.809 13.2095C118.68 13.2899 118.491 13.33 118.244 13.33H115.676C115.429 13.33 115.214 13.2899 115.032 13.2095C114.85 13.129 114.706 13.0071 114.601 12.843C114.496 12.6796 114.44 12.4801 114.434 12.2454C114.403 11.17 114.65 10.1456 115.175 9.17238C115.701 8.19887 116.619 7.39114 117.929 6.7482C119.239 6.10565 120.981 5.78418 123.157 5.78418C125.345 5.78418 127.079 6.12106 128.362 6.7946Z" fill="#F1F2F2"/>
<path d="M37.9915 19.1676L36.3674 20.7797C37.0002 21.3076 37.8143 21.63 38.7049 21.63C39.5955 21.63 40.4056 21.3076 41.0384 20.7797L39.4827 19.224C39.0717 18.8452 38.4308 18.821 37.9875 19.1636L37.9915 19.1676ZM37.0848 15.9274C37.3547 16.2176 37.6369 16.5197 37.9271 16.7616C38.3664 17.1284 38.9184 17.1646 39.3738 16.8502L41.0424 15.1858C40.4096 14.6579 39.5955 14.3354 38.7049 14.3354C37.8143 14.3354 36.9921 14.6619 36.3593 15.1939C36.6093 15.4156 36.8469 15.6774 37.0808 15.9274H37.0848ZM36.6858 19.5666C36.9921 19.2844 37.3064 18.9904 37.5361 18.6961C37.8747 18.2649 37.8505 17.6482 37.4878 17.2331L35.908 15.6533C35.3799 16.2861 35.0576 17.1002 35.0576 17.9868C35.0576 18.8734 35.3841 19.6996 35.9201 20.3323C36.1457 20.0703 36.4198 19.8125 36.6858 19.5666ZM39.8737 17.2815L41.4898 15.6372C42.0257 16.27 42.3522 17.084 42.3522 17.9827C42.3522 18.8814 42.0257 19.6955 41.4898 20.3323L39.8132 18.6276C39.5512 18.2004 39.5714 17.6764 39.8737 17.2815Z" fill="#F1F2F2"/>
<path d="M10.142 6.71631L8.59628 8.26073C8.59628 8.26073 8.25975 8.56092 8.2432 8.99287C8.37236 8.49115 8.87277 8.52944 9.03471 8.73162L9.49554 9.17946L18.8562 18.6795L20.9312 20.7857L26.81 26.7228C27.6171 27.552 29.8353 28.5428 31.6497 26.7218L33.1954 25.1774C33.1954 25.1774 33.5319 24.8772 33.5254 24.4229L33.5043 24.5368C33.3284 24.9483 32.8958 24.8863 32.7345 24.7296L32.2737 24.2817L22.867 14.7369L20.838 12.6755L14.9816 6.71531C14.4977 6.24507 13.5359 5.71351 12.4448 5.68366C11.7179 5.69405 10.8809 5.95594 10.142 6.71631Z" fill="url(#paint0_linear_13863_11912)"/>
<path d="M30.0985 5.69624C28.1997 5.74255 27.371 6.20675 25.0335 8.49908L20.8351 12.6531L22.8615 14.7194L28.5561 9.07979C29.107 8.61287 29.9159 9.23195 29.6039 9.8864L29.4906 10.1075C28.6031 11.8584 26.677 13.7473 26.037 15.7505C25.8935 16.2214 25.8149 16.6837 25.8288 17.1654C25.8268 17.3691 25.8342 17.5636 25.86 17.7583L32.2697 24.2568L32.7282 24.7243C32.8841 24.8833 33.3372 24.9525 33.4988 24.5188C33.5177 24.482 33.5366 24.4451 33.5369 24.4081L33.5373 24.371C33.5285 24.3247 33.5199 24.2598 33.5017 24.2225C32.8685 22.6791 28.8929 21.0754 28.9495 17.168C28.8134 14.0366 32.9628 11.1045 33.0613 8.60512C33.0613 8.60512 33.1265 6.67032 31.5036 5.95071C31.356 5.8937 31.1714 5.83634 30.9959 5.78833C30.9312 5.77844 30.8758 5.75938 30.8111 5.74949L30.7925 5.7493C30.7925 5.7493 30.6631 5.72952 30.6354 5.71999C30.5798 5.71945 30.5243 5.71891 30.4596 5.70902C30.3763 5.69894 30.2837 5.69804 30.1911 5.69714C30.1541 5.69678 30.1356 5.6966 30.0985 5.69624Z" fill="url(#paint1_linear_13863_11912)"/>
<path d="M33.5309 24.3705C33.526 24.3186 33.516 24.2583 33.4987 24.2171C32.8675 22.6731 28.9 21.0748 28.9487 17.1651C28.81 14.041 32.9615 11.1108 33.0671 8.60147C33.0671 8.60147 33.1298 6.6672 31.5067 5.95508C33.4335 6.73737 33.5267 8.78047 33.5267 8.78047C33.5267 12.516 30.4728 13.4675 30.4728 17.1651C30.4728 20.2504 33.252 23.6271 33.252 23.6271C33.455 23.8994 33.5276 24.1511 33.5309 24.3705Z" fill="#6B6A7C"/>
<path d="M33.5308 24.373C33.5316 24.3841 33.5316 24.3953 33.5308 24.4063V24.373Z" fill="white"/>
<path d="M10.2203 27.4476C9.42074 27.1101 8.94381 26.5523 8.65994 26.0225C8.32488 25.3953 8.20861 24.6775 8.28121 23.971C8.2828 23.9628 8.28364 23.9546 8.28447 23.9472C8.63108 20.7785 11.2889 19.719 11.3005 16.2788V16.2573C11.3005 16.2161 11.2996 16.1749 11.2988 16.1344C11.2147 13.0887 8.5221 9.81681 8.5221 9.81681C8.36201 9.60311 8.2828 9.40011 8.25562 9.21777C8.64346 10.8401 12.8733 12.3708 12.8254 16.2788C12.964 19.4037 8.81175 22.3331 8.70695 24.8425C8.70695 24.8425 8.64999 26.718 10.2203 27.4476Z" fill="#6B6A7C"/>
<path d="M29.6013 9.88746L29.4957 10.1119C28.6045 11.8513 26.6802 13.7509 26.0431 15.7487L24.9473 16.8288L23.094 14.9491L22.8662 14.7181L28.5525 9.07957C29.1087 8.61093 29.9124 9.22979 29.6013 9.88746Z" fill="#6B6A7C"/>
<path d="M25.8607 17.77C25.8599 17.7638 25.8599 17.7585 25.8589 17.7523L25.8607 17.77Z" fill="white"/>
<path d="M8.24318 9.07043C8.2424 9.11894 8.24322 9.16746 8.25468 9.21515L8.24318 9.07043Z" fill="white"/>
<path d="M18.8518 18.6706L13.7175 23.6711L13.2084 24.1663C12.4492 24.8792 11.6109 24.0499 12.1942 23.2494C12.3304 23.063 12.4245 22.9417 12.4385 22.9236L13.607 21.4663C14.5245 20.1864 15.58 18.8381 15.9892 17.4436L16.8268 16.6167L18.6793 18.4956L18.8518 18.6706Z" fill="#6B6A7C"/>
<path d="M8.24114 9.00908L8.23715 9.06652C8.2434 9.11506 8.24964 9.16359 8.25589 9.21212C8.64326 10.836 12.8751 12.3711 12.8245 16.2829C12.9638 19.3998 8.80609 22.3335 8.70834 24.8471C8.70834 24.8471 8.64559 26.7186 10.2203 27.4534C10.4447 27.5459 10.6897 27.6207 10.9742 27.6789C11.2779 27.7385 11.7962 27.7553 12.1052 27.7383C13.7665 27.6421 14.5572 27.0622 16.7363 24.9145L20.9293 20.7808L18.872 18.6849L18.8542 18.6644L13.7152 23.6752L13.2095 24.1691C12.4478 24.8858 11.6113 24.0484 12.1958 23.2521C12.3342 23.0597 12.4304 22.9221 12.4304 22.9221L13.6091 21.4648C14.5256 20.1817 15.5814 18.8314 15.9863 17.4358C16.1215 17.0123 16.1802 16.5834 16.1534 16.1391L16.14 15.9169L9.49821 9.19266L9.0399 8.7279C8.96863 8.64599 8.8475 8.58947 8.71214 8.5993C8.52958 8.59623 8.33012 8.69781 8.24114 9.00908Z" fill="url(#paint2_linear_13863_11912)"/>
<path d="M10.142 6.71631L8.59628 8.26073C8.59628 8.26073 8.25975 8.56092 8.2432 8.99287C8.37236 8.49115 8.87277 8.52944 9.03471 8.73162L9.49554 9.17946L18.8562 18.6795L20.9312 20.7857L26.81 26.7228C27.6171 27.552 29.8353 28.5428 31.6497 26.7218L33.1954 25.1774C33.1954 25.1774 33.5319 24.8772 33.5254 24.4229L33.5043 24.5368C33.3284 24.9483 32.8958 24.8863 32.7345 24.7296L32.2737 24.2817L22.867 14.7369L20.838 12.6755L14.9816 6.71531C14.4977 6.24507 13.5359 5.71351 12.4448 5.68366C11.7179 5.69405 10.8809 5.95594 10.142 6.71631Z" fill="url(#paint3_linear_13863_11912)"/>
<path d="M30.0985 5.69624C28.1997 5.74255 27.371 6.20675 25.0335 8.49908L20.8351 12.6531L22.8615 14.7194L28.5561 9.07979C29.107 8.61287 29.9159 9.23195 29.6039 9.8864L29.4906 10.1075C28.6031 11.8584 26.677 13.7473 26.037 15.7505C25.8935 16.2214 25.8149 16.6837 25.8288 17.1654C25.8268 17.3691 25.8342 17.5636 25.86 17.7583L32.2697 24.2568L32.7282 24.7243C32.8841 24.8833 33.3372 24.9525 33.4988 24.5188C33.5177 24.482 33.5366 24.4451 33.5369 24.4081L33.5373 24.371C33.5285 24.3247 33.5199 24.2598 33.5017 24.2225C32.8685 22.6791 28.8929 21.0754 28.9495 17.168C28.8134 14.0366 32.9628 11.1045 33.0613 8.60512C33.0613 8.60512 33.1265 6.67032 31.5036 5.95071C31.356 5.8937 31.1714 5.83634 30.9959 5.78833C30.9312 5.77844 30.8758 5.75938 30.8111 5.74949L30.7925 5.7493C30.7925 5.7493 30.6631 5.72952 30.6354 5.71999C30.5798 5.71945 30.5243 5.71891 30.4596 5.70902C30.3763 5.69894 30.2837 5.69804 30.1911 5.69714C30.1541 5.69678 30.1356 5.6966 30.0985 5.69624Z" fill="url(#paint4_linear_13863_11912)"/>
<path d="M33.5309 24.3705C33.526 24.3186 33.516 24.2583 33.4987 24.2171C32.8675 22.6731 28.9 21.0748 28.9487 17.1651C28.81 14.041 32.9615 11.1108 33.0671 8.60147C33.0671 8.60147 33.1298 6.6672 31.5067 5.95508C33.4335 6.73737 33.5267 8.78047 33.5267 8.78047C33.5267 12.516 30.4728 13.4675 30.4728 17.1651C30.4728 20.2504 33.252 23.6271 33.252 23.6271C33.455 23.8994 33.5276 24.1511 33.5309 24.3705Z" fill="#6B6A7C"/>
<path d="M33.5308 24.373C33.5316 24.3841 33.5316 24.3953 33.5308 24.4063V24.373Z" fill="white"/>
<path d="M10.2203 27.4476C9.42074 27.1101 8.94381 26.5523 8.65994 26.0225C8.32488 25.3953 8.20861 24.6775 8.28121 23.971C8.2828 23.9628 8.28364 23.9546 8.28447 23.9472C8.63108 20.7785 11.2889 19.719 11.3005 16.2788V16.2573C11.3005 16.2161 11.2996 16.1749 11.2988 16.1344C11.2147 13.0887 8.5221 9.81681 8.5221 9.81681C8.36201 9.60311 8.2828 9.40011 8.25562 9.21777C8.64346 10.8401 12.8733 12.3708 12.8254 16.2788C12.964 19.4037 8.81175 22.3331 8.70695 24.8425C8.70695 24.8425 8.64999 26.718 10.2203 27.4476Z" fill="#6B6A7C"/>
<path d="M29.6013 9.88746L29.4957 10.1119C28.6045 11.8513 26.6802 13.7509 26.0431 15.7487L24.9473 16.8288L23.094 14.9491L22.8662 14.7181L28.5525 9.07957C29.1087 8.61093 29.9124 9.22979 29.6013 9.88746Z" fill="#6B6A7C"/>
<path d="M25.8607 17.77C25.8599 17.7638 25.8599 17.7585 25.8589 17.7523L25.8607 17.77Z" fill="white"/>
<path d="M8.24318 9.07043C8.2424 9.11894 8.24322 9.16746 8.25468 9.21515L8.24318 9.07043Z" fill="white"/>
<path d="M18.8518 18.6706L13.7175 23.6711L13.2084 24.1663C12.4492 24.8792 11.6109 24.0499 12.1942 23.2494C12.3304 23.063 12.4245 22.9417 12.4385 22.9236L13.607 21.4663C14.5245 20.1864 15.58 18.8381 15.9892 17.4436L16.8268 16.6167L18.6793 18.4956L18.8518 18.6706Z" fill="#6B6A7C"/>
<path d="M8.24114 9.00908L8.23715 9.06652C8.2434 9.11506 8.24964 9.16359 8.25589 9.21212C8.64326 10.836 12.8751 12.3711 12.8245 16.2829C12.9638 19.3998 8.80609 22.3335 8.70834 24.8471C8.70834 24.8471 8.64559 26.7186 10.2203 27.4534C10.4447 27.5459 10.6897 27.6207 10.9742 27.6789C11.2779 27.7385 11.7962 27.7553 12.1052 27.7383C13.7665 27.6421 14.5572 27.0622 16.7363 24.9145L20.9293 20.7808L18.872 18.6849L18.8542 18.6644L13.7152 23.6752L13.2095 24.1691C12.4478 24.8858 11.6113 24.0484 12.1958 23.2521C12.3342 23.0597 12.4304 22.9221 12.4304 22.9221L13.6091 21.4648C14.5256 20.1817 15.5814 18.8314 15.9863 17.4358C16.1215 17.0123 16.1802 16.5834 16.1534 16.1391L16.14 15.9169L9.49821 9.19266L9.0399 8.7279C8.96863 8.64599 8.8475 8.58947 8.71214 8.5993C8.52958 8.59623 8.33012 8.69781 8.24114 9.00908Z" fill="url(#paint5_linear_13863_11912)"/>
<defs>
<linearGradient id="paint0_linear_13863_11912" x1="8.72996" y1="4.89606" x2="31.7714" y2="27.2881" gradientUnits="userSpaceOnUse">
<stop stop-color="#6B6A7C"/>
<stop offset="0.26" stop-color="#C2BFD8"/>
<stop offset="0.49" stop-color="white"/>
<stop offset="0.75" stop-color="#C2BFD8"/>
<stop offset="1" stop-color="#6B6A7C"/>
</linearGradient>
<linearGradient id="paint1_linear_13863_11912" x1="23.7946" y1="21.9178" x2="33.1445" y2="12.7485" gradientUnits="userSpaceOnUse">
<stop stop-color="#6B6A7C"/>
<stop offset="1" stop-color="#C2BFD8"/>
</linearGradient>
<linearGradient id="paint2_linear_13863_11912" x1="17.2969" y1="12.7598" x2="7.0578" y2="21.668" gradientUnits="userSpaceOnUse">
<stop stop-color="#6B6A7C"/>
<stop offset="0.96" stop-color="#C2BFD8"/>
<stop offset="1" stop-color="#C2BFD8"/>
</linearGradient>
<linearGradient id="paint3_linear_13863_11912" x1="8.72996" y1="4.89606" x2="31.7714" y2="27.2881" gradientUnits="userSpaceOnUse">
<stop stop-color="#6B6A7C"/>
<stop offset="0.26" stop-color="#C2BFD8"/>
<stop offset="0.49" stop-color="white"/>
<stop offset="0.75" stop-color="#C2BFD8"/>
<stop offset="1" stop-color="#6B6A7C"/>
</linearGradient>
<linearGradient id="paint4_linear_13863_11912" x1="23.7946" y1="21.9178" x2="33.1445" y2="12.7485" gradientUnits="userSpaceOnUse">
<stop stop-color="#6B6A7C"/>
<stop offset="1" stop-color="#C2BFD8"/>
</linearGradient>
<linearGradient id="paint5_linear_13863_11912" x1="17.2969" y1="12.7598" x2="7.0578" y2="21.668" gradientUnits="userSpaceOnUse">
<stop stop-color="#6B6A7C"/>
<stop offset="0.96" stop-color="#C2BFD8"/>
<stop offset="1" stop-color="#C2BFD8"/>
</linearGradient>
</defs>
</svg>
