<svg width="27" height="27" viewBox="0 0 27 27" fill="none" xmlns="http://www.w3.org/2000/svg">
<path d="M3.19761 4.77603L8.90528 10.4837C10.5707 12.1491 10.5707 14.8501 8.90528 16.5163L3.19761 22.224C1.20343 19.8702 0 16.8251 0 13.4996C0 10.1742 1.20343 7.129 3.19761 4.77603Z" fill="#520EE5"/>
<path d="M22.2239 3.19685L16.5163 8.90453C14.8508 10.5707 12.1499 10.5707 10.4837 8.90453L4.776 3.19685C7.12897 1.20267 10.1741 3.8147e-06 13.5004 3.8147e-06C16.8266 3.8147e-06 19.871 1.20267 22.2239 3.19685Z" fill="#520EE5"/>
<path d="M16.5163 18.0947L22.2239 23.8024C19.871 25.7966 16.8258 26.9992 13.5004 26.9992C10.1749 26.9992 7.12897 25.7966 4.776 23.8024L10.4844 18.0947C12.1506 16.4293 14.8508 16.4293 16.517 18.0947H16.5163Z" fill="#520EE5"/>
<path d="M27.0001 13.4997C27.0001 16.8259 25.7975 19.8711 23.8033 22.224L18.0948 16.5156C16.4287 14.8502 16.4287 12.1492 18.0949 10.483L23.8033 4.77452C25.7975 7.12754 27.0001 10.1727 27.0001 13.4989V13.4997Z" fill="#520EE5"/>
</svg>
