<svg width="133" height="30" viewBox="0 0 133 30" fill="none" xmlns="http://www.w3.org/2000/svg">
<path d="M30.2228 5.69433C28.3121 5.73848 27.4915 6.2058 25.1553 8.49682L20.9626 12.6441L22.9963 14.6997L28.6832 9.0693C29.2349 8.59937 30.036 9.21701 29.7246 9.87763L29.6238 10.1008C28.728 11.8319 26.8082 13.7324 26.17 15.7261C26.022 16.191 25.9366 16.6655 25.9589 17.141C25.9659 17.3474 25.9639 17.5447 25.989 17.7332L32.3918 24.2259L32.8447 24.6876C33.0045 24.8506 33.4433 24.9177 33.6178 24.4979C33.6272 24.4531 33.6455 24.4174 33.6458 24.3816L33.6462 24.3457C33.6467 24.2919 33.6383 24.229 33.6119 24.1839C32.9901 22.6443 29.0238 21.0452 29.0708 17.1445C28.9308 14.0311 33.0757 11.1031 33.1899 8.59308C33.1899 8.59308 33.2446 6.65648 31.6283 5.95018C31.4765 5.88592 31.2976 5.83037 31.1098 5.78369C31.0561 5.76523 30.9934 5.75565 30.9308 5.74607L30.9128 5.7459C30.886 5.73667 30.7875 5.72674 30.7606 5.71751C30.7068 5.71699 30.6442 5.70741 30.5903 5.70688C30.4918 5.69695 30.4021 5.69608 30.3124 5.69521C30.2766 5.69486 30.2586 5.69468 30.2228 5.69433Z" fill="url(#paint0_linear_14591_7)"/>
<path d="M33.6473 24.3764C33.6382 24.8504 33.3077 25.1602 33.3077 25.1602L31.7691 26.6965C29.9484 28.5179 27.7396 27.519 26.9204 26.6883L21.0672 20.7567L19.0001 18.6625L18.9862 18.6484L18.8138 18.4738L16.9636 16.5971L16.273 15.8965L9.64662 9.17547L9.19007 8.71315C9.01864 8.53922 8.53402 8.47573 8.39142 9.00321C8.41122 8.54331 8.72934 8.24499 8.72934 8.24499L10.2681 6.70867C12.0895 4.88814 14.2974 5.8862 15.1166 6.71694L20.9649 12.6436L22.9957 14.7007L23.2231 14.9314L25.0742 16.8089L25.985 17.7328L32.3913 24.2306L32.847 24.6921C33.0086 24.8553 33.447 24.922 33.6168 24.4901C33.6316 24.4539 33.6448 24.4152 33.6473 24.3764Z" fill="#904CF9"/>
<path d="M33.1847 8.59144C33.0794 11.0967 28.9344 14.0234 29.0718 17.1469C29.0215 21.0491 32.9832 22.6476 33.6152 24.1864C33.6335 24.2277 33.6427 24.2918 33.6473 24.3422C33.6427 24.1223 33.5694 23.8704 33.3679 23.6002C33.3679 23.6002 30.5924 20.2247 30.5924 17.1469C30.5924 13.4509 33.6427 12.5028 33.6427 8.77006C33.6427 8.77006 33.5511 6.73195 31.6275 5.94876C33.2488 6.65867 33.1847 8.59144 33.1847 8.59144Z" fill="url(#paint1_linear_14591_7)"/>
<path d="M33.6473 24.3442C33.6481 24.3552 33.6481 24.3664 33.6473 24.3774V24.3442Z" fill="white"/>
<path d="M8.6698 9.80897C8.6698 9.80897 11.3669 13.0661 11.442 16.1067C11.442 16.1614 11.4421 16.2524 11.4421 16.2524C11.4264 19.6936 8.76892 20.7516 8.42531 23.92L8.42533 23.9382C8.35302 24.6484 8.481 25.3584 8.80921 25.9954C9.08271 26.5232 9.57472 27.0691 10.3579 27.4144C8.79151 26.6873 8.84475 24.8119 8.84475 24.8119C8.95214 22.2991 13.1013 19.3829 12.9715 16.2513C13.0233 12.3548 8.798 10.8285 8.39624 9.20832C8.43279 9.39037 8.50577 9.5906 8.6698 9.80897Z" fill="url(#paint2_linear_14591_7)"/>
<path d="M29.7226 9.87595L29.6171 10.1001C28.727 11.8375 26.805 13.7347 26.1688 15.73L25.0742 16.8089L23.2232 14.9314L22.9957 14.7006L28.6751 9.06911C29.2305 8.60095 30.0333 9.21907 29.7226 9.87595Z" fill="#520EE5"/>
<path d="M25.9865 17.7491C25.9856 17.743 25.9857 17.7379 25.9847 17.7318L25.9865 17.7491Z" fill="white"/>
<path d="M8.39062 9.06C8.38984 9.10845 8.39066 9.15692 8.40211 9.20455L8.39062 9.06Z" fill="white"/>
<path d="M18.9862 18.6484L13.8582 23.6429L13.3496 24.1374C12.5914 24.8494 11.7541 24.0212 12.3367 23.2217C12.4727 23.0355 12.5667 22.9143 12.5807 22.8962L13.7477 21.4407C14.6642 20.1624 15.7184 18.8156 16.1271 17.4228L16.9636 16.597L18.8139 18.4736L18.9862 18.6484Z" fill="#520EE5"/>
<path d="M8.39834 9.00218C8.39109 9.02958 8.39335 9.06537 8.39335 9.06537C8.38724 9.11066 8.39902 9.15482 8.40241 9.2085C8.78335 10.828 13.0116 12.3567 12.9711 16.2573C13.1061 19.3833 8.96183 22.3042 8.85086 24.8081C8.85086 24.8081 8.79923 26.6885 10.3721 27.4153C10.5936 27.5091 10.8414 27.5922 11.1226 27.6372C11.4325 27.7075 11.9368 27.7294 12.2494 27.7007C13.9049 27.6049 14.6951 27.0339 16.8762 24.884L21.0699 20.7565L18.9972 18.6602L18.9877 18.6518L13.861 23.6467L13.3441 24.1375C12.5988 24.8493 11.7561 24.0225 12.3431 23.2219C12.4749 23.0339 12.566 22.9114 12.5827 22.8924L13.7479 21.4354C14.6645 20.1649 15.7196 18.8138 16.1345 17.4223C16.26 16.9922 16.3223 16.5572 16.2951 16.1278L16.2804 15.8952L9.64871 9.17452L9.18874 8.71863C9.12102 8.64208 9.00076 8.58682 8.86601 8.58637C8.67758 8.58931 8.46854 8.69236 8.39834 9.00218Z" fill="url(#paint3_linear_14591_7)"/>
<path d="M30.2228 5.69433C28.3121 5.73848 27.4915 6.2058 25.1553 8.49682L20.9626 12.6441L22.9963 14.6997L28.6832 9.0693C29.2349 8.59937 30.036 9.21701 29.7246 9.87763L29.6238 10.1008C28.728 11.8319 26.8082 13.7324 26.17 15.7261C26.022 16.191 25.9366 16.6655 25.9589 17.141C25.9659 17.3474 25.9639 17.5447 25.989 17.7332L32.3918 24.2259L32.8447 24.6876C33.0045 24.8506 33.4433 24.9177 33.6178 24.4979C33.6272 24.4531 33.6455 24.4174 33.6458 24.3816L33.6462 24.3457C33.6467 24.2919 33.6383 24.229 33.6119 24.1839C32.9901 22.6443 29.0238 21.0452 29.0708 17.1445C28.9308 14.0311 33.0757 11.1031 33.1899 8.59308C33.1899 8.59308 33.2446 6.65648 31.6283 5.95018C31.4765 5.88592 31.2976 5.83037 31.1098 5.78369C31.0561 5.76523 30.9934 5.75565 30.9308 5.74607L30.9128 5.7459C30.886 5.73667 30.7875 5.72674 30.7606 5.71751C30.7068 5.71699 30.6442 5.70741 30.5903 5.70688C30.4918 5.69695 30.4021 5.69608 30.3124 5.69521C30.2766 5.69486 30.2586 5.69468 30.2228 5.69433Z" fill="url(#paint4_linear_14591_7)"/>
<path d="M33.6473 24.3764C33.6382 24.8504 33.3077 25.1602 33.3077 25.1602L31.7691 26.6965C29.9484 28.5179 27.7396 27.519 26.9204 26.6883L21.0672 20.7567L19.0001 18.6625L18.9862 18.6484L18.8138 18.4738L16.9636 16.5971L16.273 15.8965L9.64662 9.17547L9.19007 8.71315C9.01864 8.53922 8.53402 8.47573 8.39142 9.00321C8.41122 8.54331 8.72934 8.24499 8.72934 8.24499L10.2681 6.70867C12.0895 4.88814 14.2974 5.8862 15.1166 6.71694L20.9649 12.6436L22.9957 14.7007L23.2231 14.9314L25.0742 16.8089L25.985 17.7328L32.3913 24.2306L32.847 24.6921C33.0086 24.8553 33.447 24.922 33.6168 24.4901C33.6316 24.4539 33.6448 24.4152 33.6473 24.3764Z" fill="#904CF9"/>
<path d="M33.1847 8.59144C33.0794 11.0967 28.9344 14.0234 29.0718 17.1469C29.0215 21.0491 32.9832 22.6476 33.6152 24.1864C33.6335 24.2277 33.6427 24.2918 33.6473 24.3422C33.6427 24.1223 33.5694 23.8704 33.3679 23.6002C33.3679 23.6002 30.5924 20.2247 30.5924 17.1469C30.5924 13.4509 33.6427 12.5028 33.6427 8.77006C33.6427 8.77006 33.5511 6.73195 31.6275 5.94876C33.2488 6.65867 33.1847 8.59144 33.1847 8.59144Z" fill="url(#paint5_linear_14591_7)"/>
<path d="M33.6473 24.3442C33.6481 24.3552 33.6481 24.3664 33.6473 24.3774V24.3442Z" fill="white"/>
<path d="M8.6698 9.80897C8.6698 9.80897 11.3669 13.0661 11.442 16.1067C11.442 16.1614 11.4421 16.2524 11.4421 16.2524C11.4264 19.6936 8.76892 20.7516 8.42531 23.92L8.42533 23.9382C8.35302 24.6484 8.481 25.3584 8.80921 25.9954C9.08271 26.5232 9.57472 27.0691 10.3579 27.4144C8.79151 26.6873 8.84475 24.8119 8.84475 24.8119C8.95214 22.2991 13.1013 19.3829 12.9715 16.2513C13.0233 12.3548 8.798 10.8285 8.39624 9.20832C8.43279 9.39037 8.50577 9.5906 8.6698 9.80897Z" fill="url(#paint6_linear_14591_7)"/>
<path d="M29.7226 9.87595L29.6171 10.1001C28.727 11.8375 26.805 13.7347 26.1688 15.73L25.0742 16.8089L23.2232 14.9314L22.9957 14.7006L28.6751 9.06911C29.2305 8.60095 30.0333 9.21907 29.7226 9.87595Z" fill="#520EE5"/>
<path d="M25.9865 17.7491C25.9856 17.743 25.9857 17.7379 25.9847 17.7318L25.9865 17.7491Z" fill="white"/>
<path d="M8.39062 9.06C8.38984 9.10845 8.39066 9.15692 8.40211 9.20455L8.39062 9.06Z" fill="white"/>
<path d="M18.9862 18.6484L13.8582 23.6429L13.3496 24.1374C12.5914 24.8494 11.7541 24.0212 12.3367 23.2217C12.4727 23.0355 12.5667 22.9143 12.5807 22.8962L13.7477 21.4407C14.6642 20.1624 15.7184 18.8156 16.1271 17.4228L16.9636 16.597L18.8139 18.4736L18.9862 18.6484Z" fill="#520EE5"/>
<path d="M8.39834 9.00218C8.39109 9.02958 8.39335 9.06537 8.39335 9.06537C8.38724 9.11066 8.39902 9.15482 8.40241 9.2085C8.78335 10.828 13.0116 12.3567 12.9711 16.2573C13.1061 19.3833 8.96183 22.3042 8.85086 24.8081C8.85086 24.8081 8.79923 26.6885 10.3721 27.4153C10.5936 27.5091 10.8414 27.5922 11.1226 27.6372C11.4325 27.7075 11.9368 27.7294 12.2494 27.7007C13.9049 27.6049 14.6951 27.0339 16.8762 24.884L21.0699 20.7565L18.9972 18.6602L18.9877 18.6518L13.861 23.6467L13.3441 24.1375C12.5988 24.8493 11.7561 24.0225 12.3431 23.2219C12.4749 23.0339 12.566 22.9114 12.5827 22.8924L13.7479 21.4354C14.6645 20.1649 15.7196 18.8138 16.1345 17.4223C16.26 16.9922 16.3223 16.5572 16.2951 16.1278L16.2804 15.8952L9.64871 9.17452L9.18874 8.71863C9.12102 8.64208 9.00076 8.58682 8.86601 8.58637C8.67758 8.58931 8.46854 8.69236 8.39834 9.00218Z" fill="url(#paint7_linear_14591_7)"/>
<path d="M73.1125 6.83755C74.3288 7.54457 75.2636 8.55204 75.9183 9.86057C76.5724 11.1691 76.8995 12.7061 76.8995 14.4715V26.443C76.8995 26.8318 76.7977 27.1265 76.5942 27.3273C76.3901 27.5277 76.0973 27.628 75.7142 27.628H73.3441C72.9553 27.628 72.6602 27.5277 72.4601 27.3273C72.2594 27.1265 72.1588 26.8318 72.1588 26.443V15.2123C72.1588 13.5826 71.7917 12.3499 71.0569 11.5133C70.3228 10.6768 69.2021 10.2589 67.696 10.2589C66.7274 10.2589 65.9017 10.4609 65.2196 10.8652C64.5374 11.2695 64.0172 11.8604 63.6592 12.6384C63.3013 13.4159 63.1223 14.3542 63.1223 15.4529V26.443C63.1223 26.8318 63.0205 27.1265 62.8169 27.3273C62.6134 27.5277 62.32 27.628 61.9375 27.628H59.5669C59.1781 27.628 58.8836 27.5277 58.6829 27.3273C58.4822 27.1265 58.3822 26.8318 58.3822 26.443V15.2123C58.3822 13.5826 58.0145 12.3499 57.2803 11.5133C56.5456 10.6768 55.4254 10.2589 53.9194 10.2589C52.9502 10.2589 52.1246 10.4609 51.4424 10.8652C50.7603 11.2695 50.2405 11.8604 49.8826 12.6384C49.5246 13.4159 49.3456 14.3542 49.3456 15.4529V26.443C49.3456 26.8318 49.2438 27.1265 49.0397 27.3273C48.8362 27.5277 48.5429 27.628 48.1604 27.628H45.7903C45.4015 27.628 45.1064 27.5277 44.9063 27.3273C44.7056 27.1265 44.6049 26.8318 44.6049 26.443V7.48108C44.6049 7.09856 44.7056 6.80524 44.9063 6.60142C45.1064 6.39783 45.4015 6.29604 45.7903 6.29604H48.0586C48.4411 6.29604 48.7344 6.39783 48.938 6.60142C49.1415 6.80524 49.2467 7.09856 49.253 7.48108L49.3176 11.6568H47.7252C47.9042 10.6322 48.2821 9.67534 48.8596 8.7865C49.4366 7.89766 50.2468 7.17403 51.2897 6.61538C52.3327 6.0568 53.5923 5.77744 55.0676 5.77744C56.3266 5.77744 57.4668 5.99187 58.4885 6.42097C59.5097 6.85014 60.3754 7.46879 61.0856 8.2773C61.7951 9.08612 62.32 10.055 62.6597 11.1846L61.539 10.9438C61.7986 10.0058 62.2292 9.1493 62.8307 8.37455C63.4328 7.60002 64.2367 6.97332 65.2425 6.49507C66.2488 6.01675 67.4496 5.77744 68.8442 5.77744C70.4737 5.77744 71.8963 6.13083 73.1125 6.83755Z" fill="#0A004F"/>
<path d="M84.334 26.7532C82.7325 25.8243 81.4962 24.5004 80.626 22.7813C79.7557 21.0622 79.3206 19.0515 79.3206 16.7493C79.3206 14.4778 79.7649 12.5149 80.654 10.8607C81.5426 9.2065 82.7616 7.94568 84.3111 7.0783C85.8601 6.21116 87.6069 5.77751 89.5516 5.77751C91.4831 5.77751 93.1933 6.20206 94.6805 7.05054C96.1683 7.89941 97.3228 9.10758 98.1438 10.6755C98.9644 12.2432 99.3749 14.0764 99.3749 16.1751V17.1008C99.3749 17.4837 99.2731 17.7768 99.0696 17.9806C98.866 18.1842 98.5727 18.2862 98.1901 18.2862H80.5151V14.4343H95.6623L94.7268 15.3881C94.7268 14.3265 94.5278 13.3743 94.1299 12.5317C93.7319 11.6892 93.1441 11.0257 92.3659 10.541C91.5883 10.0567 90.65 9.8143 89.5516 9.8143C88.4154 9.8143 87.4314 10.0813 86.5978 10.6151C85.7646 11.1492 85.1243 11.9362 84.6765 12.9763C84.2294 14.0164 84.0053 15.274 84.0053 16.7493C84.0053 18.3293 84.2603 19.6502 84.7692 20.712C85.2786 21.7735 85.9745 22.5623 86.8573 23.0775C87.7396 23.593 88.7522 23.8506 89.8941 23.8506C90.5854 23.8506 91.1823 23.7719 91.6855 23.6144C92.1887 23.4571 92.6038 23.2456 92.9308 22.9803C93.2579 22.715 93.5295 22.4031 93.7457 22.0451C93.8383 21.8785 93.8909 21.7798 93.9029 21.7489C94.0081 21.5328 94.1207 21.357 94.2408 21.2211C94.3615 21.0854 94.505 20.9836 94.6714 20.9155C94.8383 20.8478 95.0327 20.8137 95.2546 20.8137H97.4954C97.7544 20.8137 97.9769 20.8601 98.1622 20.9527C98.3474 21.0451 98.4829 21.1812 98.5693 21.3598C98.6556 21.5391 98.6836 21.7521 98.6527 21.9988C98.5046 23.1284 98.0558 24.1607 97.3056 25.0959C96.556 26.031 95.5496 26.7732 94.2872 27.3227C93.0252 27.8719 91.5792 28.1466 89.9495 28.1466C87.8076 28.1466 85.9362 27.6821 84.334 26.7532Z" fill="#0A004F"/>
<path d="M105.607 6.29598H111.51C111.893 6.29598 112.186 6.39777 112.39 6.60128C112.593 6.80517 112.695 7.0985 112.695 7.48102V9.70296C112.695 10.0921 112.593 10.3868 112.39 10.5873C112.186 10.788 111.893 10.8883 111.51 10.8883H104.777L105.607 6.29598ZM102.585 27.1882C101.992 26.8949 101.55 26.452 101.256 25.8597C100.963 25.267 100.817 24.5234 100.817 23.6283L103.959 1.18504C103.959 0.80252 104.059 0.509197 104.26 0.305382C104.461 0.101794 104.756 0 105.145 0H107.496C107.879 0 108.172 0.101794 108.376 0.305382C108.579 0.509197 108.681 0.80252 108.681 1.18504L105.538 23.6746L105.122 23.2577H109.723C110.107 23.2577 110.399 23.3598 110.603 23.5634C110.807 23.7672 110.909 24.0602 110.909 24.4431V26.4429C110.909 26.8317 110.807 27.1265 110.603 27.3271C110.399 27.5276 110.107 27.6279 109.723 27.6279H104.816C103.922 27.6279 103.178 27.4812 102.585 27.1882Z" fill="#0A004F"/>
<path d="M128.366 6.78661C129.646 7.45957 130.546 8.35129 131.065 9.4623C131.583 10.5735 131.842 11.8575 131.842 13.3142V21.0544C131.842 21.8692 131.867 22.758 131.916 23.721C131.966 24.6838 132.037 25.5667 132.129 26.3689C132.16 26.6404 132.138 26.8689 132.064 27.0538C131.99 27.2391 131.867 27.3812 131.694 27.4798C131.521 27.5785 131.299 27.628 131.027 27.628H128.963C128.716 27.628 128.504 27.5879 128.329 27.5076C128.153 27.4273 128.012 27.3086 127.907 27.1511C127.802 26.9938 127.737 26.7977 127.713 26.5633C127.669 26.1868 127.626 25.8102 127.583 25.4337C127.54 25.0203 127.472 24.329 127.38 23.3598L128.62 23.295C128.509 23.8876 128.241 24.5403 127.815 25.253C127.389 25.966 126.677 26.6079 125.681 27.1791C124.683 27.7497 123.367 28.0354 121.731 28.0354C120.22 28.0354 118.84 27.7592 117.593 27.2068C116.346 26.6542 115.358 25.8534 114.63 24.8042C113.902 23.7549 113.538 22.511 113.538 21.0729C113.538 19.7644 113.84 18.6826 114.445 17.8275C115.05 16.9727 115.879 16.334 116.931 15.9112C117.983 15.4883 119.216 15.2399 120.63 15.1659L126.556 14.8603C126.716 14.848 126.836 14.8248 126.916 14.7908C126.997 14.757 127.054 14.6998 127.088 14.6195C127.122 14.5395 127.139 14.4191 127.139 14.2584H129.509C129.509 14.9434 129.421 15.5778 129.245 16.1611C129.069 16.7443 128.694 17.2614 128.12 17.712C127.546 18.1626 126.706 18.4247 125.602 18.4988L121.908 18.7395C121.056 18.7953 120.371 18.9142 119.852 19.096C119.334 19.2781 118.954 19.5375 118.714 19.874C118.473 20.2104 118.352 20.641 118.352 21.1653C118.352 21.7951 118.529 22.3429 118.884 22.8089C119.24 23.2749 119.727 23.6329 120.348 23.8827C120.968 24.1329 121.67 24.2578 122.454 24.2578C123.324 24.2578 124.111 24.0974 124.815 23.7764C125.518 23.4556 126.082 22.9324 126.505 22.2071C126.927 21.4818 127.139 20.5484 127.139 19.4062V13.2215C127.139 12.1537 126.824 11.3557 126.194 10.828C125.565 10.3002 124.555 10.0363 123.167 10.0363C122.296 10.0363 121.574 10.1367 121 10.3374C120.426 10.5381 119.999 10.8003 119.718 11.1245C119.437 11.4484 119.275 11.8017 119.232 12.1846C119.201 12.4685 119.158 12.6877 119.102 12.8418C119.047 12.9962 118.954 13.1135 118.824 13.1938C118.695 13.2741 118.507 13.3142 118.259 13.3142H115.695C115.448 13.3142 115.234 13.2741 115.051 13.1938C114.869 13.1135 114.726 12.9916 114.621 12.8278C114.516 12.6646 114.461 12.4653 114.454 12.2308C114.423 11.1568 114.67 10.1336 115.195 9.16154C115.72 8.18919 116.636 7.38243 117.945 6.74026C119.253 6.09847 120.994 5.77739 123.167 5.77739C125.352 5.77739 127.084 6.11387 128.366 6.78661Z" fill="#0A004F"/>
<path d="M37.7794 19.6306L36.1572 21.2407C36.7893 21.768 37.6024 22.0901 38.492 22.0901C39.3815 22.0901 40.1906 21.768 40.8227 21.2407L39.2689 19.6869C38.8583 19.3085 38.2182 19.2844 37.7754 19.6266L37.7794 19.6306ZM36.8738 16.3942C37.1434 16.6841 37.4252 16.9859 37.7151 17.2275C38.1538 17.5938 38.7052 17.63 39.1601 17.316L40.8267 15.6535C40.1946 15.1263 39.3815 14.8042 38.492 14.8042C37.6024 14.8042 36.7812 15.1303 36.1492 15.6616C36.3988 15.883 36.6362 16.1446 36.8697 16.3942H36.8738ZM36.4753 20.0291C36.7812 19.7473 37.0951 19.4535 37.3246 19.1596C37.6627 18.7289 37.6386 18.113 37.2763 17.6984L35.6984 16.1204C35.1709 16.7525 34.849 17.5656 34.849 18.4512C34.849 19.3367 35.1751 20.1619 35.7104 20.7939C35.9358 20.5322 36.2095 20.2747 36.4753 20.0291ZM39.6593 17.7467L41.2735 16.1044C41.8088 16.7364 42.1349 17.5495 42.1349 18.4471C42.1349 19.3447 41.8088 20.1579 41.2735 20.7939L39.599 19.0912C39.3373 18.6646 39.3574 18.1412 39.6593 17.7467Z" fill="#0A004F"/>
<defs>
<linearGradient id="paint0_linear_14591_7" x1="25.733" y1="20.1167" x2="34.7878" y2="11.2368" gradientUnits="userSpaceOnUse">
<stop stop-color="#5201E1"/>
<stop offset="1" stop-color="#904CF9"/>
</linearGradient>
<linearGradient id="paint1_linear_14591_7" x1="29.0673" y1="15.1454" x2="33.6473" y2="15.1454" gradientUnits="userSpaceOnUse">
<stop stop-color="#904CF9"/>
<stop offset="1" stop-color="#833AFF"/>
</linearGradient>
<linearGradient id="paint2_linear_14591_7" x1="13.8834" y1="18.308" x2="-4.32411" y2="18.3215" gradientUnits="userSpaceOnUse">
<stop stop-color="#904CF9"/>
<stop offset="1" stop-color="#833AFF"/>
</linearGradient>
<linearGradient id="paint3_linear_14591_7" x1="7.0072" y1="23.5894" x2="15.3868" y2="14.0774" gradientUnits="userSpaceOnUse">
<stop stop-color="#904CF9"/>
<stop offset="1" stop-color="#5201E1"/>
</linearGradient>
<linearGradient id="paint4_linear_14591_7" x1="25.733" y1="20.1167" x2="34.7878" y2="11.2368" gradientUnits="userSpaceOnUse">
<stop stop-color="#5201E1"/>
<stop offset="1" stop-color="#904CF9"/>
</linearGradient>
<linearGradient id="paint5_linear_14591_7" x1="29.0673" y1="15.1454" x2="33.6473" y2="15.1454" gradientUnits="userSpaceOnUse">
<stop stop-color="#904CF9"/>
<stop offset="1" stop-color="#833AFF"/>
</linearGradient>
<linearGradient id="paint6_linear_14591_7" x1="13.8834" y1="18.308" x2="-4.32411" y2="18.3215" gradientUnits="userSpaceOnUse">
<stop stop-color="#904CF9"/>
<stop offset="1" stop-color="#833AFF"/>
</linearGradient>
<linearGradient id="paint7_linear_14591_7" x1="7.0072" y1="23.5894" x2="15.3868" y2="14.0774" gradientUnits="userSpaceOnUse">
<stop stop-color="#904CF9"/>
<stop offset="1" stop-color="#5201E1"/>
</linearGradient>
</defs>
</svg>
