<svg width="24" height="24" viewBox="0 0 24 24" fill="none" xmlns="http://www.w3.org/2000/svg">
<g clip-path="url(#clip0_14591_2885)">
<path d="M12 16C14.2091 16 16 14.2091 16 12C16 9.79086 14.2091 8 12 8C9.79086 8 8 9.79086 8 12C8 14.2091 9.79086 16 12 16Z" stroke="white" stroke-width="2" stroke-linecap="round" stroke-linejoin="round"/>
<path d="M6.3 17.7L5.6 18.4M3 12H4H3ZM12 3V4V3ZM20 12H21H20ZM12 20V21V20ZM5.6 5.6L6.3 6.3L5.6 5.6ZM18.4 5.6L17.7 6.3L18.4 5.6ZM17.7 17.7L18.4 18.4L17.7 17.7Z" stroke="white" stroke-width="2" stroke-linecap="round" stroke-linejoin="round"/>
</g>
<defs>
<clipPath id="clip0_14591_2885">
<rect width="24" height="24" fill="white"/>
</clipPath>
</defs>
</svg>
