<svg width="25" height="20" viewBox="0 0 25 20" fill="none" xmlns="http://www.w3.org/2000/svg">
<path d="M24.1667 7.25V15.7083C24.1667 17.7104 22.5438 19.3333 20.5417 19.3333H3.625C1.62297 19.3333 0 17.7104 0 15.7083V7.25H24.1667ZM19.3333 12.0833H15.7083C15.041 12.0833 14.5 12.6243 14.5 13.2917C14.5 13.959 15.041 14.5 15.7083 14.5H19.3333C20.0007 14.5 20.5417 13.959 20.5417 13.2917C20.5417 12.6243 20.0007 12.0833 19.3333 12.0833ZM20.5417 0C22.5438 0 24.1667 1.62297 24.1667 3.625V4.83333H0V3.625C0 1.62297 1.62297 0 3.625 0H20.5417Z" fill="url(#paint0_linear_44_115)"/>
<defs>
<linearGradient id="paint0_linear_44_115" x1="12.0833" y1="0" x2="12.0833" y2="19.3333" gradientUnits="userSpaceOnUse">
<stop stop-color="white"/>
<stop offset="1" stop-color="#999999"/>
</linearGradient>
</defs>
</svg>
